<?xml version='1.0' encoding='iso-8859-1'?>
<svg version="1.1" xmlns="http://www.w3.org/2000/svg" viewBox="0 0 60 60" xmlns:xlink="http://www.w3.org/1999/xlink" enable-background="new 0 0 60 60">
  <g>
    <g>
      <path d="m59,12h-19v-8c0-2.209-1.791-4-4-4h-12c-2.209,0-4,1.791-4,4v3c0,0.552 0.448,1 1,1 0.552,0 1-0.448 1-1v-3c0-1.105 0.895-2 2-2h12c1.105,0 2,0.895 2,2v8h-37c-0.552,0-1,0.448-1,1 0,0.552 0.448,1 1,1h7v42c0,2.209 1.791,4 4,4h36c2.209,0 4-1.791 4-4v-37c0-0.552-0.448-1-1-1-0.552,0-1,0.448-1,1v37c0,1.105-0.895,2-2,2h-36c-1.105,0-2-0.895-2-2v-42h49c0.552,0 1-0.448 1-1 0-0.552-0.448-1-1-1z"/>
    </g>
  </g>
  <g>
    <g>
      <path d="m30,22c-0.552,0-1,0.448-1,1v26c0,0.552 0.448,1 1,1 0.552,0 1-0.448 1-1v-26c0-0.552-0.448-1-1-1zm10,4c-0.552,0-1,0.448-1,1v18c0,0.552 0.448,1 1,1 0.552,0 1-0.448 1-1v-18c0-0.552-0.448-1-1-1zm-20,0c-0.552,0-1,0.448-1,1v18c0,0.552 0.448,1 1,1 0.552,0 1-0.448 1-1v-18c0-0.552-0.448-1-1-1z"/>
    </g>
  </g>
</svg>
